# xmcd
#
# Track frame offsets: 
#        150
#        16130
#        30531
#        46160
#        57381
#        74295
#        94699
#        114809
#        128869
#        142504
#
# Disc length: 2119 seconds
#
# Revision: 0
# Processed by: cddbd v1.5.2PL0 Copyright (c) Steve Scherf et al.
# Submitted via: ExactAudioCopy v0.95b3
#
DISCID=7408450a
DTITLE=Brenda Lee  - Reflections In Blue
DYEAR=1900
DGENRE=
TTITLE0=Here's That Rainy Day
TTITLE1=You'll Never Know
TTITLE2=Baby Won't You Please Come Home
TTITLE3=Can't Help Falling In Love
TTITLE4=I'll Only Miss Him When I Think Of Him
TTITLE5=Am I Blue
TTITLE6=If I Had You
TTITLE7=Close To You
TTITLE8=Little Girl Blue
TTITLE9=I Will Wait For You
EXTD=
EXTT0=
EXTT1=
EXTT2=
EXTT3=
EXTT4=
EXTT5=
EXTT6=
EXTT7=
EXTT8=
EXTT9=
PLAYORDER=
